<svg width="286" height="83" viewBox="0 0 286 83" fill="none" xmlns="http://www.w3.org/2000/svg">
<path id="ABDO" d="M0.68 82.536V23.4H12.328V11.88H23.848V0.231995H36.904V11.88H48.424V23.4H60.2V82.536H47.144V59.368H13.608V82.536H0.68ZM13.608 46.44H47.144V24.68H35.624V13.16H25.128V24.68H13.608V46.44ZM87.328 82.536V71.016H75.68V11.88H87.328V0.231995H123.424V11.88H135.2V36.2H123.424V46.44H135.2V71.016H123.424V82.536H87.328ZM88.608 69.736H122.144V47.72H98.848V35.048H122.144V13.16H88.608V69.736ZM150.68 82.536V0.231995H186.904V11.88H198.424V23.4H210.2V59.368H198.424V71.016H186.904V82.536H150.68ZM163.608 69.736H185.624V58.088H197.144V24.68H185.624V13.16H163.608V69.736ZM237.328 82.536V71.016H225.68V11.88H237.328V0.231995H273.424V11.88H285.2V71.016H273.424V82.536H237.328ZM238.608 69.736H272.144V13.16H238.608V69.736Z" fill="white"/>
</svg>
